<?xml version="1.0" standalone="no"?><!DOCTYPE svg PUBLIC "-//W3C//DTD SVG 1.1//EN" "http://www.w3.org/Graphics/SVG/1.1/DTD/svg11.dtd"><svg t="1549176833458" class="icon" style="" viewBox="0 0 1026 1024" version="1.1" xmlns="http://www.w3.org/2000/svg" p-id="2326" xmlns:xlink="http://www.w3.org/1999/xlink" width="16.03125" height="16"><defs><style type="text/css"></style></defs><path d="M512.569198 1023.715796C229.928009 1023.715796 0 794.108431 0 511.854329 0 229.607365 229.928009 0 512.569198 0 795.217554 0 1025.145563 229.607365 1025.145563 511.854329 1025.145563 794.108431 795.217554 1023.715796 512.569198 1023.715796L512.569198 1023.715796ZM512.569198 73.450935C270.491867 73.450935 73.553554 270.114633 73.553554 511.854329 73.553554 753.562602 270.491867 950.264861 512.569198 950.264861 754.615077 950.264861 951.592009 753.562602 951.592009 511.854329 951.592009 270.114633 754.615077 73.450935 512.569198 73.450935L512.569198 73.450935ZM564.122478 513.428173 722.436315 357.054661C736.820882 342.872905 736.932498 319.726504 722.726619 305.361942 708.519351 290.990234 685.307685 290.878837 670.955959 305.06488L512.424741 461.624057 356.313381 305.249119C341.994569 290.957392 318.854437 290.878837 304.54133 305.17771 290.223909 319.436588 290.189605 342.577269 304.469797 356.876142L460.363776 513.02686 303.184091 668.300676C288.799451 682.526705 288.686446 705.628833 302.893787 720.000534 310.067493 727.24137 319.480832 730.856075 328.927086 730.856075 338.223177 730.856075 347.524974 727.314213 354.664375 720.290458L512.061513 564.836688 670.737189 723.805191C677.87659 730.967479 687.25131 734.549336 696.658944 734.549336 706.033664 734.549336 715.368375 730.967479 722.507776 723.876593 736.820882 709.617715 736.860965 686.509883 722.580773 672.178161L564.122478 513.428173 564.122478 513.428173Z" fill="#8a8a8a" p-id="2327"></path></svg>